HIERARCHY
ROOT pelvis
{
  OFFSET 0 100 0
  CHANNELS 6 Xposition Yposition Zposition Zrotation Xrotation Yrotation
  JOINT pelvis_right_femur
  {
    OFFSET -10.78128 -3.44521 -0.5502486
    CHANNELS 3 Zrotation Xrotation Yrotation
    JOINT right_femur_tibia
    {
      OFFSET -0.8047443 -44.0398 -0.1307829
      CHANNELS 3 Zrotation Xrotation Yrotation
      JOINT right_tibia_foot
      {
        OFFSET 3.006224 -47.83518 -5
        CHANNELS 3 Zrotation Xrotation Yrotation
        End Site
        {
          OFFSET 0 -5 15
        }
      }
    }
  }
  JOINT pelvis_left_femur
  {
    OFFSET 10.78128 -3.44521 -0.5502486
    CHANNELS 3 Zrotation Xrotation Yrotation
    JOINT left_femur_tibia
    {
      OFFSET 0.8047443 -44.0398 -0.1307829
      CHANNELS 3 Zrotation Xrotation Yrotation
      JOINT left_tibia_foot
      {
        OFFSET -4.370144 -48.10324 -4.275266
        CHANNELS 3 Zrotation Xrotation Yrotation
        End Site
        {
          OFFSET 0 -5 15
        }
      }
    }
  }
  JOINT pelvis_spine1
  {
    OFFSET 0 6.468898 -3.129235
    CHANNELS 3 Zrotation Xrotation Yrotation
    JOINT spine1
    {
      OFFSET 0 23.15396 4.99043
      CHANNELS 3 Zrotation Xrotation Yrotation
      JOINT spine2
      {
        OFFSET 0 20.79997 -5.064912
        CHANNELS 3 Zrotation Xrotation Yrotation
        JOINT neck
        {
          OFFSET 0 14.38658 9.616178
          CHANNELS 3 Zrotation Xrotation Yrotation
          End Site
          {
            OFFSET 0 20 0
          }
        }
      }
      JOINT right_manubrium
      {
        OFFSET -5.722621 16.35077 3.967754
        CHANNELS 3 Zrotation Xrotation Yrotation
        JOINT right_clavicle
        {
          OFFSET -13.16364 1.694482 -4.693211
          CHANNELS 3 Zrotation Xrotation Yrotation
          JOINT right_humerus
          {
            OFFSET -28.5034 -0.3100689 -2.792744
            CHANNELS 3 Zrotation Xrotation Yrotation
            JOINT right_radius
            {
              OFFSET -25.15693 0.02248979 -1.271978
              CHANNELS 3 Zrotation Xrotation Yrotation
              End Site
              {
                OFFSET -15 0 0
              }
            }
          }
        }
      }
      JOINT left_manubrium
      {
        OFFSET 5.722621 16.35077 3.967754
        CHANNELS 3 Zrotation Xrotation Yrotation
        JOINT left_clavicle
        {
          OFFSET 13.16364 1.694482 -4.693211
          CHANNELS 3 Zrotation Xrotation Yrotation
          JOINT left_humerus
          {
            OFFSET 29.39168 -1.063119 -2.237045
            CHANNELS 3 Zrotation Xrotation Yrotation
            JOINT left_radius
            {
              OFFSET 24.59957 -0.9528479 0.9047498
              CHANNELS 3 Zrotation Xrotation Yrotation
              End Site
              {
                OFFSET 15 -0 -0
              }
            }
          }
        }
      }
    }
  }
}
MOTION
Frames: 19
Frame Time: 0.0416666666667
0 103.5113 0 1.185897 -0.3973268 0.0414208 3.375973 -17.17908 9.358837 -0 36.66491 -0 -5.088308 -15.99048 -4.105312 -7.175332 11.21456 -23.10757 -0 4.318088 -0 6.823592 -18.34669 26.12765 -3.21214 -5.856274 3.738535 3.326088 8.145887 -9.788607 0.3820508 20.22313 8.884141 3.420531 -26.02819 10.22717 6.738407 -19.12287 12.45907 83.57511 31.94339 -17.82562 -0 0 19.19775 -10.58741 9.884162 5.625796 9.948068 -22.15164 5.682771 -93.74573 17.66821 20.49769 0 0 -7.798285 12.18411 19.70355 -4.191531
0.2299506 104.1422 1.658003 0.305542 0.3919674 0.03094375 4.769096 -20.29631 9.880931 -0 36.84333 -0 -5.189582 -14.19939 -4.138327 -6.533562 10.91873 -22.92214 -0 4.948408 -0 5.163127 -20.06385 25.76137 -2.9355 -5.483095 3.740744 3.226188 8.20751 -9.700079 0.298432 20.16738 9.162772 3.818047 -25.75809 10.09339 6.665354 -18.75696 12.53493 83.57588 31.96157 -18.01628 -0 0 19.01933 -10.90235 10.15211 5.583552 10.13944 -22.46198 5.687592 -93.73016 18.07142 20.21201 0 0 -8.298585 11.69036 19.41513 -3.714072
0.4906643 104.2956 4.194164 -0.37793 1.402823 0.05055803 5.84756 -28.87869 7.167454 -0 26.72677 -0 -6.310462 -9.68732 -2.81918 -6.276269 12.44397 -20.01935 -0 5.545672 -0 7.368202 -21.29858 23.68396 -2.182474 -2.943055 6.409182 1.66427 8.512734 -6.386942 1.726345 23.29594 4.125951 1.886285 -24.19079 7.731439 4.639465 -20.23474 9.820186 83.64893 34.53115 -16.77578 -0 0 16.93162 -7.83388 8.199658 2.79235 7.225045 -21.58441 -0.6570409 -94.97593 28.5205 22.8101 0 0 -15.62692 8.182599 19.92647 5.119327
0.7716276 104.4047 7.096291 -0.6522509 2.402598 0.1980756 6.69714 -31.58815 7.221768 -0 23.74788 -0 -6.136724 -7.96184 -2.263114 -6.335249 12.58654 -19.28201 -0 6.244264 -0 8.683152 -21.38388 23.70312 -2.054407 -2.235052 5.630429 1.977561 8.157759 -6.288539 1.840008 23.74485 3.78258 1.811401 -24.0052 7.468486 4.654252 -19.5886 9.838915 84.54435 34.22279 -18.02131 -0 0 15.87729 -7.47923 7.870573 2.689035 6.30951 -21.03187 -2.065578 -95.36664 31.63252 22.98007 0 0 -16.99593 4.095947 19.53864 9.920466
1.078594 104.5444 10.34977 -0.9902739 3.315023 0.5007121 7.576614 -33.56742 7.416209 -0 21.63661 -0 -5.981461 -6.470051 -1.811153 -6.294768 12.78548 -18.7552 -0 7.299321 -0 9.206763 -21.38225 23.43071 -2.603129 -2.087249 4.1219 2.704927 7.977885 -6.770548 1.938479 23.92129 3.833408 1.643239 -24.05464 7.804163 5.105371 -18.93581 10.07261 86.13643 33.74694 -20.32492 -0 0 14.80426 -7.212625 7.32827 3.122695 4.870301 -19.76775 -3.708004 -96.13454 34.84162 23.68709 0 0 -17.61492 -0.8146715 18.5219 15.31841
1.399422 104.6909 13.9365 -1.264577 3.897477 0.919695 8.081115 -34.8818 7.256455 -0 19.69133 -0 -6.002064 -5.281717 -1.561068 -6.167712 13.23746 -18.18485 -0 8.402866 -0 8.861542 -21.4322 22.54876 -1.771384 -1.101252 4.008139 3.158954 8.190595 -6.91215 1.530038 23.26722 4.515605 2.218519 -24.45305 7.29766 5.166122 -17.81716 10.68809 85.88237 33.79912 -20.08643 -0 0 13.06362 -8.322643 8.521545 4.471857 4.519852 -19.68855 -3.394404 -94.8209 32.40805 22.5627 0 0 -17.49716 -0.2588808 16.48962 14.52462
1.720097 104.8327 17.95752 -1.453206 4.266483 1.437523 8.275641 -35.9217 6.685307 -0 17.29131 -0 -6.146989 -4.07496 -1.459525 -6.019255 14.08228 -17.33419 -0 9.801543 -0 8.174434 -21.23213 21.10294 -1.288078 -0.6665058 3.817709 3.467853 8.580336 -7.249095 1.333192 22.55794 5.046864 2.632502 -24.69352 7.139811 5.319801 -17.06736 11.10335 86.20604 33.55882 -20.62245 -0 0 11.81166 -9.065051 9.412406 5.243109 4.437272 -19.79398 -3.223961 -93.91625 30.40503 21.70648 0 0 -17.50091 0.3844833 15.16529 13.67444
2.034498 104.9919 22.46597 -1.613973 4.482455 2.039856 8.329838 -36.49885 6.037355 -0 15.03645 -0 -6.27735 -2.897541 -1.522945 -5.81784 15.05672 -16.35587 -0 11.63832 -0 7.035052 -20.77965 19.32781 -1.388217 -0.654382 3.411493 3.716822 8.545072 -7.529961 1.267739 22.35349 5.335207 2.73745 -24.89731 7.280761 5.421757 -16.82096 11.23917 86.55546 33.38131 -21.17151 -0 0 11.40746 -9.163042 9.451178 5.519441 4.256515 -19.61582 -3.294124 -93.77746 30.39217 21.49284 0 0 -17.53286 -0.1989178 14.88593 14.15046
2.339714 105.211 27.51455 -1.766158 4.532315 2.698635 8.342374 -36.48774 5.446717 -0 13.19052 -0 -6.338495 -1.750023 -1.749583 -5.558584 16.0444 -15.27365 -0 14.1622 -0 5.524167 -19.88519 17.35963 -1.190544 -0.5133677 3.269058 3.87391 8.717664 -7.777607 1.177053 21.926 5.652984 2.964146 -25.05687 7.266233 5.488233 -16.46389 11.42085 86.80613 33.20493 -21.57708 -0 0 10.79438 -9.51888 9.889636 5.85705 4.324291 -19.75527 -3.155928 -93.26183 29.32444 20.91666 0 0 -17.67168 0.2245792 14.33058 13.56901
2.629706 105.5409 33.14017 -1.908965 4.337664 3.36108 8.324426 -35.70791 4.985001 -0 11.8873 -0 -6.266667 -0.6626402 -2.197218 -5.193077 16.91913 -14.05608 -0 17.63759 -0 3.422282 -18.52244 15.19375 -0.9590695 -0.3974226 3.225412 3.960269 8.921061 -7.983321 1.111507 21.50226 5.909762 3.17732 -25.16201 7.234412 5.53144 -16.16305 11.56016 87.03014 33.05755 -21.93245 -0 0 10.26916 -9.857477 10.35283 6.099619 4.498504 -19.9986 -2.988321 -92.74155 28.18123 20.31894 0 0 -17.89842 0.8970524 13.82468 12.75186
2.891681 106.0477 39.36022 -2.002603 3.739194 3.932657 8.262372 -33.86277 4.737476 -0 11.31526 -0 -5.948288 0.2666509 -2.941376 -4.689099 17.48358 -12.64353 -0 22.47549 -0 0.6557012 -16.53892 12.96532 -0.7895726 -0.3044618 3.170419 4.033904 9.057224 -8.162011 1.051375 21.16244 6.12566 3.34904 -25.23841 7.202203 5.55756 -15.91004 11.67315 87.21317 32.93179 -22.2251 -0 0 9.8236 -10.17726 10.73157 6.328066 4.648457 -20.20713 -2.861299 -92.26511 27.27052 19.75072 0 0 -18.17589 1.386713 13.39923 12.13386
3.111116 106.8245 46.11192 -1.98853 2.552669 4.274922 8.156611 -30.62476 4.833081 -0 11.78827 -0 -5.272758 0.7600597 -3.969616 -4.058747 17.29885 -11.07882 -0 29.02352 -0 -2.518864 -13.82848 11.13824 -0.5772579 -0.1581407 3.194785 4.058136 9.21602 -8.284334 0.9844808 20.87194 6.274294 3.499185 -25.19216 7.063766 5.564385 -15.63263 11.7957 87.32791 32.81132 -22.40341 -0 0 9.319129 -10.66443 11.19134 6.631119 4.795969 -20.46141 -2.785973 -91.65598 26.2695 19.05919 0 0 -18.58716 1.880568 12.85939 11.54332
3.27614 107.9689 53.20407 -1.776138 0.6258626 4.236591 7.936031 -25.80999 5.27306 -0 13.27484 -0 -4.197326 0.4583003 -5.134358 -3.389684 15.75665 -9.455205 -0 37.29479 -0 -5.553198 -10.60768 10.33345 -0.3678304 0.03631908 3.300712 4.017106 9.406888 -8.330536 0.913981 20.68428 6.328275 3.601132 -24.94297 6.802474 5.557079 -15.35463 11.93217 87.34039 32.65928 -22.41147 -0 0 8.811751 -11.39971 11.7027 7.058471 4.878073 -20.71092 -2.823542 -90.93293 25.28005 18.29046 0 0 -19.08542 2.20482 12.19609 11.1752
3.392958 109.5403 60.31919 -1.300555 -1.928357 3.755279 7.521959 -19.63891 5.887136 -0 14.9966 -0 -2.810683 -0.795892 -6.085462 -2.846555 12.25094 -7.93762 -0 46.51943 -0 -7.738797 -7.583173 10.95286 -0.2547528 0.2445771 3.475688 3.907348 9.5924 -8.263495 0.8528489 20.6875 6.265374 3.615633 -24.4728 6.456523 5.538612 -15.16738 12.06422 87.15255 32.4491 -22.11492 -0 0 8.494556 -12.32553 12.12054 7.597784 4.80211 -20.8331 -3.006197 -90.26004 24.57805 17.66075 0 0 -19.46271 2.122839 11.54767 11.29525
3.504693 111.5126 67.128 -0.6257462 -4.481909 2.9438 6.945869 -12.87386 6.434473 -0 15.58684 -0 -1.397078 -2.652571 -6.342365 -2.507797 6.521538 -6.733769 -0 55.08742 -0 -8.706404 -5.594724 12.52261 -0.280624 0.4437083 3.712638 3.748249 9.707297 -8.050986 0.8094559 20.91288 6.101239 3.535122 -23.8884 6.094748 5.507002 -15.15685 12.16816 86.65212 32.22406 -21.37141 -0 0 8.540009 -13.24564 12.30626 8.174552 4.539689 -20.74019 -3.273209 -89.81133 24.33859 17.38401 0 0 -19.52479 1.61844 11.07946 11.93261
3.668431 113.7273 73.44966 0.07093137 -6.07262 2.023269 6.234109 -6.598987 6.571929 -0 14.48078 -0 -0.7923014 -4.707309 -5.553719 -2.262216 -0.926674 -6.048691 -0 60.95318 -0 -8.62029 -4.922496 13.79304 -0.4220689 0.629849 4.005707 3.571855 9.667852 -7.681067 0.7779963 21.33276 5.878509 3.383828 -23.37532 5.778874 5.448917 -15.36562 12.22386 85.77988 32.12008 -20.10415 -0 0 9.008842 -13.92688 12.1909 8.694389 4.146794 -20.43526 -3.507485 -89.67602 24.60219 17.54301 0 0 -19.25909 0.8738154 10.89579 12.88974
3.86404 115.8522 79.30811 0.6708919 -6.251219 1.207325 5.264534 -1.591709 5.85195 -0 12.9703 -0 -2.042615 -7.224286 -4.09326 -2.104388 -8.377973 -5.999006 -0 61.81804 -0 -7.685656 -5.140445 14.40925 -0.6163345 0.801641 4.44704 3.321482 9.492548 -7.131299 0.7505734 21.86599 5.627062 3.215643 -22.93783 5.501778 5.327342 -15.84694 12.22187 84.46673 32.20105 -18.19048 -0 0 10.02685 -14.45464 11.86456 9.163086 3.771682 -20.04977 -3.597565 -89.78968 25.15164 18.04804 0 0 -18.80162 0.2236661 10.91164 13.78434
3.993823 117.5044 84.85453 1.084646 -6.036154 0.5706552 4.312024 2.29409 4.770039 -0 12.4265 -0 -3.972743 -10.16767 -3.283542 -2.01021 -13.57406 -6.207379 -0 57.14284 -0 -6.416354 -5.605237 15.68094 -0.8130592 0.9241193 5.177625 2.889729 9.268728 -6.39067 0.7218901 22.36787 5.402513 3.118103 -22.4557 5.239183 5.078797 -16.70532 12.15624 82.57674 32.35036 -15.42091 -0 0 11.89443 -15.15975 11.48238 9.686547 3.603222 -19.75198 -3.410381 -90.04416 25.59566 18.76968 0 0 -18.24398 0.03003301 10.98952 14.16828
4.029272 118.5397 90.21697 1.207019 -6.48229 0.01110227 3.841691 5.780731 4.154755 -0 12.44271 -0 -4.860364 -12.92737 -3.49042 -1.696997 -16.41649 -6.171269 -0 49.74277 -0 -5.656972 -6.095281 17.94843 -0.9797179 0.9715456 5.964731 2.436596 8.915598 -5.645483 0.6704523 22.74046 5.310129 3.133725 -22.17418 5.056725 4.708596 -17.75386 12.02396 80.43785 32.56996 -12.31376 -0 0 14.17941 -15.8041 11.04626 10.19338 3.6387 -19.57475 -2.954805 -90.35137 26.00751 19.47641 0 0 -17.81952 0.1999853 11.18921 14.08758
